<svg xmlns="http://www.w3.org/2000/svg" viewBox="45.2 111.2 504.6 504.6"><path fill="#11B6A5" fill-rule="evenodd" d="M186.9 410.2C186.7 410.3 186.3 410.4 186.1 410.5L160.9 430.6L116.6 466.6C102.9 477.7 91.7 490.2 88.5 508.1C82.4 543.2 113.8 579.8 149.6 579.7L210.4 579.6L367.4 579.6C403.1 579.6 454.5 545.1 428.4 505.4C425.1 500.4 421 495.6 416.4 491.8C410.7 487.1 404.1 482.6 397.1 480.1L366.6 469.1L294.6 445.6L188.9 410.4C188.2 410.2 187.5 410.1 186.9 410.2ZM179.9 213.9C181.1 217 181.3 220.5 182.7 223.6C188.7 236.7 202.1 247.6 215.6 252.3L246.6 263.2L403.4 315.3C404.9 315.8 408.6 317.6 410.1 316.3L435.6 294.8L489.4 249.4C522.3 221.5 507 167.8 465.1 151.1C460 149.1 452.8 146.3 447.4 146.3L415.4 146.4L263.1 146.4C249.3 146.4 224.6 154 213.6 162.3L187.4 182.2C137.3 220.1 106.8 300.5 152.8 353.4C158.6 360 164.4 366.1 171.9 370.9C179.5 375.8 187 381.7 195.6 384.9L226.6 396.4L274.9 412.7L322.9 428.7L374.6 446.1C407.8 457.2 446.4 482.3 444.6 521.9C444.2 531.2 441.1 539.4 437.6 547.9C450.6 542.2 461.8 528.1 470.5 517.4C506 473.5 503.6 415.4 463.4 375.4C446.7 358.8 423.3 348.4 401.4 340.9L351.6 324C350.4 323.6 349.1 323.2 347.9 322.8L305.9 308.8L231.6 283.8C206.9 275.4 171.9 243.1 179.9 213.9Z"/></svg>
